<svg xmlns="http://www.w3.org/2000/svg" fill="none" viewBox="0 0 125 37" height="37" width="125">
<path fill="white" d="M21.6944 8.83664L24.3401 4.22742C25.1111 2.878 24.6575 1.14955 23.312 0.376288C21.9665 -0.39697 20.243 0.0578876 19.472 1.4073L16.8112 6.01652C11.157 4.22742 4.82244 6.54719 1.73832 11.9145C-0.227046 15.3259 -0.468937 19.2529 0.725402 22.6946L5.6237 14.1736C6.74245 12.2177 8.57176 10.8228 10.7488 10.2315C12.9258 9.64022 15.1935 9.94346 17.1438 11.0806C21.1652 13.4155 22.5561 18.6009 20.2279 22.634C17.8997 26.6671 12.7444 28.0619 8.70782 25.727L11.5198 20.8449C12.8653 21.6181 14.5888 21.1633 15.3598 19.8139C16.1309 18.4645 15.6773 16.736 14.3318 15.9627C12.9863 15.1895 11.2628 15.6443 10.4918 16.9938L1.54179 32.565C0.770757 33.9144 1.2243 35.6429 2.56982 36.4162C3.91535 37.1894 5.63882 36.7346 6.40985 35.3852L9.07066 30.7759C14.7249 32.565 21.0594 30.2453 24.1435 24.8779C27.2276 19.5258 26.0635 12.8697 21.6944 8.83664Z"></path>
<path fill="white" d="M76.4224 12.0359C72.8545 12.0359 70.0122 14.7347 70.0122 18.4039C70.0122 22.0731 72.8545 24.7719 76.4224 24.7719C79.9903 24.7719 82.8323 22.0731 82.8323 18.4039C82.8323 14.7347 79.9903 12.0359 76.4224 12.0359ZM104.316 12.0359C100.748 12.0359 97.9054 14.7347 97.9054 18.4039C97.9054 22.0731 100.748 24.7719 104.316 24.7719C107.883 24.7719 110.725 22.0731 110.725 18.4039C110.725 14.7347 107.883 12.0359 104.316 12.0359ZM114.807 12.0812V24.6049H117.196V19.4046C117.196 18.51 117.015 17.1454 117.015 17.1454C117.015 17.1454 117.876 18.2521 118.496 18.8434L124.725 24.7263H124.982V12.2026H122.593V17.403C122.593 18.2521 122.76 19.6622 122.76 19.6622C122.76 19.6622 121.913 18.5252 121.308 17.9642L115.065 12.0812H114.807ZM33.5924 12.1875V24.6203H36.1474V20.5417H37.9466C40.4713 20.5417 42.5576 19.2682 42.5576 16.3571C42.5576 13.446 40.4713 12.1875 37.9466 12.1875H33.5924ZM46.2917 12.1875V24.6049H54.7428V22.3611H48.8467V19.4804H53.8207V17.2819H48.8467V14.4313H54.4857V12.1875H46.2917ZM59.0211 12.1875V24.6049H67.1699V22.3611H61.5611V12.1875H59.0211ZM85.569 12.1875V14.4313H89.0913V24.6049H91.6464V14.4313H95.1841V12.1875H85.569ZM76.4224 14.3102C78.675 14.3102 80.202 16.0842 80.202 18.4039C80.202 20.7237 78.675 22.4976 76.4224 22.4976C74.1698 22.4976 72.6429 20.7237 72.6429 18.4039C72.6429 16.0842 74.1698 14.3102 76.4224 14.3102ZM104.316 14.3102C106.568 14.3102 108.095 16.0842 108.095 18.4039C108.095 20.7237 106.568 22.4976 104.316 22.4976C102.063 22.4976 100.536 20.7237 100.536 18.4039C100.536 16.0842 102.063 14.3102 104.316 14.3102ZM36.1474 14.4464H37.871C39.0956 14.4464 39.927 14.9622 39.927 16.3571C39.927 17.7368 39.1258 18.2976 37.871 18.2976H36.1474V14.4464Z"></path>
</svg>
