<svg xmlns="http://www.w3.org/2000/svg" fill="none" viewBox="0 0 132 32" height="32" width="132">
<path fill="white" d="M6.34806 21.1353C6.27182 21.1753 6.1976 21.2247 6.12541 21.2822H0.00947438V27.5734L3.8748 31.4689H16.8856L20.6754 27.6835V15.9282L16.7482 12.1331H11.8403C11.8238 11.773 11.8994 11.4552 11.8994 11.4552C12.4241 11.1969 12.9598 11.8479 12.9598 11.8479C13.2104 11.8267 13.5272 12.0079 13.5272 12.0079C13.8994 11.8856 15.0162 12.1741 15.067 12.0925C15.1096 11.4257 14.8376 11.0189 14.6145 10.8012H20.6767V4.418L16.3582 0H4.50394L0 4.47304V15.9804L3.91202 19.8924H7.47033C7.38867 20.1013 7.30407 20.2741 7.30407 20.2741L6.34806 21.1353ZM12.9152 9.74215C12.7868 9.68305 12.6172 9.6817 12.6172 9.6817L12.3823 9.42814C12.3823 8.90073 11.8082 9.0442 11.8082 9.0442L11.8563 8.75726C12.0135 8.75726 12.4498 8.81953 12.9167 8.88427V9.74193L12.9152 9.74215ZM12.4735 21.9472L13.2639 21.9788V23.8854H11.3848L11.3835 23.5626L11.404 21.8317C11.4363 21.4141 11.7473 21.6627 11.7473 21.6627C12.0108 21.928 12.4735 21.9472 12.4735 21.9472ZM12.9152 7.87389C12.8926 7.86577 12.8698 7.85404 12.8473 7.84434H12.9152V7.87389ZM4.12271 19.3828L0.516579 15.7769V4.70494L4.70809 0.531919H16.1349L20.2071 4.70764V10.2892H13.981C13.9364 10.2172 13.9068 10.1608 13.9068 10.1608C13.797 9.96096 13.6039 9.88675 13.4295 9.86148V8.9542C13.9219 9.01871 14.3469 9.06405 14.3972 9.0133C14.628 8.78118 14.0331 8.40829 13.4295 8.11142V7.33814H11.7446C11.3257 7.05639 11.2605 6.81344 11.2605 6.81344C11.1171 5.90345 12.1218 6.27498 12.1218 6.27498C12.6533 6.31558 12.7631 6.0133 12.7631 6.0133C12.5578 5.41912 11.8078 5.22828 11.6882 5.1773C11.5461 5.1182 11.5236 5.06451 11.5784 4.95555C11.616 4.88066 12.0201 5.06338 12.1511 4.93435C12.4505 4.63343 11.4081 3.96796 11.4081 3.96796C12.0866 3.93029 11.3379 3.23663 11.3379 3.23663C10.8867 2.87954 11.044 2.56553 11.044 2.56553C11.5206 2.61358 11.5193 2.11437 11.4451 2.09565C10.743 1.93503 10.8626 1.66095 10.8626 1.66095C10.8626 1.42184 10.7458 1.17415 10.7458 1.17415C10.8412 0.744191 10.647 0.830138 10.647 0.830138C10.3605 0.830138 10.526 1.0864 10.526 1.0864C10.4225 1.51906 10.1243 1.81841 10.1243 1.81841C9.47664 1.806 9.81456 2.41394 9.81456 2.41394L10.217 2.37762L10.1229 2.77103C9.1888 3.17911 9.44438 3.85134 9.97675 3.91315C10.0241 4.03406 9.94855 4.14256 9.94855 4.14256C9.3943 4.16648 9.50484 4.37897 9.03653 4.60703C8.6738 4.78682 8.68214 4.97225 8.71034 5.10354C8.7638 5.36521 9.11413 5.11594 9.11413 5.11594L8.76944 5.58425C7.61628 6.09722 8.63342 6.43243 8.63342 6.43243C9.5407 5.88991 9.89509 6.09722 9.89509 6.09722C10.0386 6.66726 9.7541 7.07105 9.4225 7.33543H7.63883C7.63883 7.4983 7.63883 7.78118 7.63883 8.13692C7.0803 8.52356 6.8766 9.04127 6.8766 9.04127C6.49401 9.42521 6.68485 9.6156 6.68485 9.6156C6.87502 9.71102 7.27813 9.55649 7.63748 9.37851C7.63748 9.73628 7.63748 10.1092 7.63748 10.4692C7.60793 10.483 7.58808 10.4931 7.58808 10.4931C7.34896 10.9711 6.4392 11.3551 6.4392 11.3551C5.33904 11.8315 5.86509 12.4566 5.86509 12.4566C6.04082 12.4861 6.9551 12.2971 7.63771 12.1495C7.63771 12.3693 7.63771 12.5466 7.63771 12.6632C7.85404 12.6632 8.45634 12.6632 9.24835 12.6632C9.04578 13.0072 8.69004 13.365 8.69004 13.365C8.54499 13.843 7.97224 14.0361 7.97224 14.0361C6.44055 14.418 6.53484 14.944 6.53484 14.944L7.68372 14.8486C8.01894 14.5621 8.25918 14.8486 8.25918 14.8486L8.64176 14.944C8.83486 15.2312 8.5504 16.0814 8.5504 16.0814H7.78524C7.73719 16.3699 7.21113 16.3672 7.21113 16.3672C6.97202 16.2738 6.68373 16.5608 6.68373 16.5608C6.58831 16.7518 6.15767 16.944 6.15767 16.944C5.77509 17.0374 6.06225 17.2298 6.06225 17.2298C6.39814 16.9907 6.39814 17.5157 6.39814 17.5157C6.30272 17.7559 5.52379 17.7451 5.5362 17.947C5.56033 18.3041 8.1694 17.2271 8.1694 17.2271C8.50371 16.9443 8.74283 17.087 8.74283 17.087C8.98239 17.469 8.26482 17.947 8.26482 17.947C7.97788 18.282 7.5107 18.4663 7.5107 18.4663C6.40558 18.6449 6.28129 19.2849 6.27024 19.3796C5.01849 19.3828 4.12271 19.3828 4.12271 19.3828ZM8.31309 8.99706C8.8405 8.46943 9.22309 8.99706 9.22309 8.99706C10.1331 9.33272 9.5116 9.6659 9.5116 9.6659C9.39205 9.6659 8.68891 9.98262 8.16692 10.2231V9.08842C8.25805 9.03473 8.31309 8.99706 8.31309 8.99706ZM8.16669 7.87141V7.84457H8.24362C8.21677 7.85291 8.19196 7.86306 8.16669 7.87141ZM8.40287 11.977C9.26482 11.6438 9.31287 12.1232 9.31287 12.1232C9.31557 12.1261 9.31715 12.1274 9.31986 12.1315H8.16669V12.0331C8.31309 11.9995 8.40287 11.977 8.40287 11.977ZM10.0122 21.9143C10.168 22.2355 10.1976 23.1119 10.1976 23.1119V23.2905L10.1805 23.8881H8.45521V22.3194C8.83509 22.0433 9.09044 21.524 9.09044 21.524C9.57747 21.321 9.85539 21.5928 10.0122 21.9143ZM6.33092 19.3828L7.50394 19.1423C7.598 19.155 7.62192 19.2497 7.61109 19.3828C7.1606 19.3828 6.72929 19.3828 6.33092 19.3828ZM7.49694 22.7148C7.64041 22.4719 7.87953 22.4759 7.87953 22.4759C7.89667 22.4787 7.91179 22.4773 7.92758 22.48C7.92758 23.1064 7.92758 24.0074 7.92758 24.4209C8.26617 24.4209 9.18654 24.4209 10.2044 24.4209L10.1638 25.3262C10.1527 25.7329 10.1261 26.6007 10.0929 26.8479C9.99615 27.5829 9.82854 27.686 9.72478 27.7534C9.5786 27.8454 9.36362 27.8838 9.04826 28.0185C8.27272 28.3453 8.33949 29.1626 7.96525 29.4004C7.50777 29.6916 7.63342 29.5982 7.22692 29.6887C6.81885 29.7793 6.59913 30.2312 6.59913 30.2312H14.9106C14.8784 29.9742 14.9346 29.7421 13.961 29.4193C13.0117 29.1046 13.4911 28.9345 12.268 28.3124C11.8276 28.0897 11.5955 27.2986 11.4746 26.7065C11.3832 26.256 11.4374 26.05 11.4374 26.05L11.39 24.686L11.3887 24.4209C12.4518 24.4209 13.4266 24.4209 13.7767 24.4209C13.7767 24.0403 13.778 23.0336 13.778 22.0061C14.3467 22.1037 15.2973 22.8565 15.2973 22.8565C16.3027 23.4322 16.1119 22.8069 16.1119 22.8069C15.8247 20.7521 14.6275 20.5599 14.6275 20.5599C13.9104 20.3672 14.3884 19.9359 14.3884 19.9359C15.251 19.2671 14.2326 19.083 14.2326 19.083C13.563 19.175 12.8527 18.7232 12.8527 18.7232C11.6555 17.8125 12.0931 17.2287 12.0931 17.2287C12.1886 16.6063 13.6111 17.5294 13.6111 17.5294C13.9937 17.8646 14.3762 17.5748 14.3762 17.5748C14.4236 17.3839 14.87 17.0363 14.87 17.0363C15.6839 16.4139 13.7203 16.2725 13.7203 16.2725C12.7861 15.6887 12.2127 15.4908 11.9352 14.7588C11.857 14.5533 11.8529 14.4166 11.8529 14.4166C11.8529 14.4166 13.3239 14.5533 13.4058 14.5718C13.4881 14.5896 14.0185 14.6488 14.0047 14.4633C13.9952 14.3273 13.7363 13.9262 13.1353 13.6557C12.6093 13.4207 12.1592 12.9587 11.9781 12.6598C14.2384 12.6598 16.5199 12.6598 16.5199 12.6598L20.2082 16.1994V27.4121L16.6045 31.0178H4.14211L0.5247 27.3591V21.8152H5.62891C5.04105 22.6244 4.68937 23.7575 4.68937 23.7575C4.64132 24.3318 5.44348 23.8538 5.44348 23.8538C5.44348 23.8538 5.52379 23.7094 5.54996 23.6614C5.83442 23.1818 6.605 23.1351 6.605 23.1351C6.986 23.2274 7.49694 22.7148 7.49694 22.7148Z"></path>
<path fill="white" d="M11.0849 1.63032C11.1144 1.65558 11.2132 1.73183 11.5128 1.79928C11.679 1.83695 11.7869 1.9917 11.7896 2.17487C11.7896 2.20171 11.7869 2.23126 11.7842 2.25946C11.7533 2.44489 11.6125 2.72934 11.3693 2.79927C11.3851 2.81033 11.4957 2.89627 11.4957 2.89627C11.9112 3.21976 12.2498 3.82882 11.9021 3.94432C12.3734 4.26645 12.5299 4.59963 12.5354 4.72934C12.5491 5.02192 12.3761 5.0905 12.3452 5.13313C12.6199 5.26645 12.9222 5.53083 13.0546 5.91612L13.0896 6.02056L13.0524 6.12275C12.9838 6.31585 12.7043 6.63257 12.0977 6.58722L12.0614 6.58181L12.0258 6.57211C11.843 6.51459 11.6563 6.4918 11.5814 6.5579C11.5622 6.57639 11.5383 6.60459 11.5383 6.6664C11.5383 6.69031 11.5651 6.72686 11.5678 6.75348C11.5773 6.7722 11.6001 6.80716 11.638 6.85318H13.9545V8.0377C14.3741 8.28088 14.6887 8.54391 14.7449 8.80017C14.7517 8.83107 14.7566 8.86333 14.758 8.89559C14.758 9.01921 14.7099 9.13876 14.6159 9.23351C14.5128 9.33727 14.4002 9.37224 13.9545 9.33186V9.75641C13.9732 9.7722 13.9894 9.78731 14.0082 9.80581H19.6881V4.96192L15.9224 1.0896H11.0418C11.0389 1.10336 11.0364 1.11577 11.0348 1.12592C11.0864 1.20442 11.1611 1.62062 11.0849 1.63032Z"></path>
<path fill="white" d="M8.02725 17.7507L8.05544 17.7191L8.08906 17.6943C8.17207 17.6395 8.24493 17.575 8.31012 17.5104C8.29704 17.5159 8.28463 17.5201 8.28463 17.5201C5.82716 18.5298 5.51744 18.3345 5.40081 18.2619C5.29569 18.2 5.23388 18.0929 5.22508 17.9733C5.22508 17.9639 5.22373 17.9555 5.22373 17.9474C5.22102 17.6122 5.59255 17.5147 5.84114 17.4516C5.74008 17.3706 5.65166 17.2443 5.64872 17.0945C5.64737 17.071 5.65008 17.0464 5.65278 17.0216C5.67421 16.9007 5.76264 16.7414 6.04236 16.6591C6.19892 16.5878 6.36314 16.4985 6.39675 16.4464C6.40104 16.4396 6.43938 16.3832 6.43938 16.3832L6.47029 16.3514C6.5136 16.3077 6.88378 15.916 7.24787 16.0658C7.35096 16.0658 7.43668 16.034 7.48269 16.0027C7.49172 15.956 7.52104 15.7746 7.52104 15.7746H8.31712C8.37058 15.5671 8.40171 15.3604 8.40013 15.2292C8.40013 15.2197 8.39742 15.2167 8.39607 15.2052C8.29027 15.1784 8.18312 15.1536 8.18312 15.1536L8.08906 15.1207L8.02725 15.0575C8.00604 15.0367 7.9792 15.0072 7.88513 15.087L7.80956 15.1522L6.28148 15.2799L6.2314 15.0038C6.19779 14.8141 6.21561 14.1644 7.87408 13.7455C7.99499 13.7015 8.31441 13.5396 8.39269 13.2786L8.40983 13.2195H7.11996V12.5793C6.52668 12.7002 5.98461 12.7902 5.81633 12.7633L5.70377 12.7435L5.63023 12.6562C5.60609 12.6287 5.43307 12.4157 5.43036 12.111C5.43036 12.0491 5.43645 11.9826 5.45315 11.9138C5.53345 11.5691 5.82468 11.2883 6.32118 11.0712C6.54586 10.9758 6.89325 10.7861 7.11996 10.5865V9.91538C6.90092 9.96749 6.6997 9.97178 6.54721 9.89553L6.5039 9.87297L6.46736 9.83801C6.45721 9.83259 6.33088 9.70198 6.32795 9.48227C6.32659 9.32504 6.39517 9.12088 6.61218 8.8847C6.66384 8.77326 6.81746 8.47392 7.11974 8.17255V6.85312H9.47683C9.56728 6.72386 9.62503 6.57205 9.62165 6.39768C9.62165 6.39226 9.62165 6.38594 9.62029 6.37895C9.47525 6.39203 9.21357 6.45249 8.79061 6.70514L8.6794 6.77327L8.55307 6.74033C8.40532 6.70266 7.91581 6.5425 7.88355 6.143C7.8822 6.13194 7.88084 6.12021 7.88084 6.10938C7.87814 5.78725 8.1829 5.52558 8.46871 5.38346C8.46871 5.38346 8.466 5.38211 8.466 5.38053C8.42066 5.32707 8.35208 5.10375 8.3602 5.0681C8.37329 4.67988 8.84294 4.38459 9.26049 4.0654C9.27922 4.04758 9.29817 4.02615 9.31689 4.00765C9.26185 3.97133 9.21245 3.92734 9.17748 3.8626C9.14387 3.80079 9.1274 3.74034 9.1274 3.67718C9.12379 3.43671 9.10056 3.08502 9.64173 2.71778C9.61623 2.68281 9.55713 2.59822 9.55713 2.59822C9.52623 2.55356 9.40667 2.26098 9.40532 2.04939C9.40396 1.97111 9.42111 1.8908 9.46171 1.81049C9.52758 1.68282 9.58262 1.53348 9.92596 1.52468C9.92325 1.52468 10.0133 1.52468 10.0133 1.52468C10.0227 1.52333 10.1382 1.27587 10.2212 1.11525C10.2185 1.10691 10.2185 1.09879 10.2158 1.0918H4.9201L1.04102 4.96411V15.5987L4.34171 18.9023H6.02567C6.16034 18.6481 6.50931 18.2621 7.40961 18.1109C7.42066 18.108 7.81227 18.0049 8.02725 17.7507Z"></path>
<path fill="white" d="M5.81801 23.8249L5.67454 24.0802L5.60235 24.1229C5.41286 24.2368 4.93554 24.4786 4.61205 24.2767C4.5234 24.219 4.38196 24.0886 4.377 23.8181C4.377 23.7919 4.37835 23.7658 4.38038 23.7371L4.38309 23.7053L4.39279 23.6724C4.42775 23.5571 4.61521 22.9857 4.92854 22.3757H1.04675V27.1822L4.35376 30.5406H6.10923L6.32015 30.1025C6.3497 30.0448 6.6195 29.5147 7.1566 29.3965L7.39436 29.3511C7.50558 29.3333 7.50558 29.3333 7.7968 29.1479C7.88545 29.0931 7.97817 28.9406 8.05441 28.7538C8.20488 28.387 8.36075 27.9803 8.9238 27.7416C9.09953 27.6674 9.15254 27.6342 9.30007 27.5959C9.39481 27.5713 9.51843 27.5205 9.55475 27.4998C9.59603 27.4739 9.70386 27.4064 9.78281 26.8158C9.80266 26.6618 9.83221 26.2979 9.84056 25.8542C9.84056 25.8542 9.85003 25.3241 9.85003 25.3184C9.85003 25.3184 9.85139 25.2898 9.85139 25.2882C9.84868 25.2911 9.82184 25.3268 9.82184 25.3268L9.83199 24.9834H7.40993V23.1935C7.19766 23.3432 6.90666 23.489 6.61543 23.4531C6.43948 23.4608 5.97659 23.5528 5.81801 23.8249Z"></path>
<path fill="white" d="M15.2118 30.139L15.2584 30.5401H16.3915L19.6888 27.2353V16.4526L16.3004 13.2234H12.9742C13.0656 13.2825 13.1583 13.3387 13.26 13.3833C13.9138 13.6745 14.2909 14.1498 14.3115 14.4501C14.3115 14.4569 14.3115 14.4639 14.3115 14.472C14.3128 14.5963 14.2524 14.7494 14.0723 14.8338C13.9487 14.8929 13.4899 14.9671 13.2578 14.8674C13.0455 14.8449 12.6801 14.8083 12.2846 14.7734C12.4804 15.1683 12.8066 15.375 13.3663 15.7054C13.3663 15.7054 13.718 15.917 13.8181 15.9773C14.4637 16.0323 15.2246 16.1889 15.355 16.6272C15.366 16.6669 15.3748 16.7136 15.3748 16.7603C15.3776 16.9087 15.3083 17.0955 15.0584 17.2865C14.8851 17.4251 14.6999 17.6066 14.6704 17.6725C14.6627 17.6944 14.6395 17.7686 14.6395 17.7686L14.5619 17.8293C14.3633 17.9775 13.8811 18.1535 13.4369 17.7921C13.0399 17.5327 12.5689 17.3278 12.3875 17.3267C12.3832 17.3459 12.3771 17.3678 12.3771 17.3678L12.3476 17.4117C12.3311 17.4406 12.3214 17.4805 12.3214 17.5297C12.3241 17.7165 12.4732 18.0463 13.0302 18.4747C13.0933 18.5103 13.6731 18.8555 14.1887 18.7824L14.2368 18.7742L14.2862 18.7837C14.3927 18.8029 14.9244 18.9197 15.0272 19.3359C15.0931 19.6091 14.9469 19.8922 14.5966 20.1695C14.5842 20.1835 14.5711 20.197 14.5616 20.2135C14.5885 20.2272 14.6329 20.2437 14.7024 20.2644C14.9023 20.3068 16.1186 20.6533 16.4166 22.763C16.4592 22.9333 16.4421 23.164 16.2607 23.3095C15.9641 23.5473 15.5079 23.34 15.1454 23.1311L15.1256 23.1201L15.1064 23.1036C14.8598 22.9073 14.5673 22.7122 14.3015 22.5597V24.98H11.7098L11.7475 26.0598V26.0761C11.7475 26.0803 11.6981 26.248 11.7784 26.6504C11.9235 27.3565 12.1542 27.9141 12.4103 28.0447C13.0793 28.384 13.2894 28.5543 13.4563 28.7505C13.5903 28.9087 13.6692 29.0034 14.0613 29.1313C14.9756 29.4359 15.1671 29.712 15.2118 30.139Z"></path>
<path fill="white" d="M12.3383 17.4227L12.3465 17.4117V17.4089L12.3383 17.4227Z"></path>
<path fill="white" d="M55.1078 19.3428C52.7769 20.2 52.5055 21.9733 52.5055 22.9747C52.5055 23.8262 52.7863 26.6052 56.4464 26.6052C58.1441 26.6052 59.23 25.8303 59.8254 25.2108C60.0739 26.068 60.8197 26.5763 61.8926 26.5763C63.1315 26.5763 63.8267 25.9541 64.558 25.0735L64.7058 24.8826L64.2614 24.3757L64.0437 24.5625C63.9339 24.6559 63.7999 24.6972 63.602 24.6972C62.8102 24.6972 62.6577 23.9584 62.6577 23.0035C62.6577 22.6243 62.6722 22.0022 62.6886 21.2853C62.7126 20.244 62.7408 18.9474 62.7408 17.7865C62.7408 16.464 62.6974 15.1994 62.1301 14.2853C61.3692 13.1321 60.1446 12.5957 58.2621 12.5957C55.3631 12.5957 54.041 14.3807 53.7092 15.4315L53.642 15.6395L54.3185 16.0448L54.4647 15.7687C54.4701 15.7547 55.2195 14.3629 57.0444 14.3629C58.2849 14.3629 59.2003 14.9618 59.521 15.9158C59.6805 16.4143 59.6805 16.6065 59.6805 17.4116V17.8402C58.0275 18.3566 57.5132 18.4583 55.1078 19.3428ZM59.6835 24.0789C58.9603 24.5968 58.1333 24.7026 57.5551 24.7026C55.801 24.7026 55.5393 23.4759 55.5393 22.7466C55.5393 21.8125 55.946 21.0173 56.7187 20.6243C57.2756 20.3457 57.8856 20.0448 59.6837 19.505L59.6835 24.0789Z"></path>
<path fill="white" d="M29.6409 25.9305C31.0104 26.3756 32.3427 26.5676 34.0954 26.5676C36.0555 26.5676 40.6145 26.0402 40.6145 21.1476C40.6145 18.2588 38.9743 17.1629 37.2319 16.0007L35.1868 14.6466C33.4045 13.4695 32.5899 12.9294 32.5899 11.3402C32.5899 10.1837 32.9387 8.64047 35.936 8.64047C37.2107 8.64047 38.416 8.89808 38.9605 9.44263C39.3555 9.84169 39.5651 10.3583 39.6143 11.0752L39.6307 11.3402H40.3163L40.2951 10.9179C40.2723 10.3513 40.2827 9.80108 40.2827 9.16923C40.2827 8.37045 40.3018 7.63348 40.3018 7.62671L40.3109 7.38579L40.067 7.34248C39.9928 7.33301 38.2037 7.02734 35.8796 7.02734C30.2211 7.02734 29.7835 10.8282 29.7835 11.9901C29.7835 14.3684 30.9256 15.5615 33.1694 17.0449L34.7841 18.1232L35.0285 18.2908C36.5579 19.3208 37.6657 20.0682 37.6657 21.8568C37.6657 23.9499 36.4679 24.9227 33.8938 24.9227C32.6671 24.9227 31.3452 24.5351 30.7708 23.8854C30.3964 23.4638 30.1938 22.8649 30.1588 22.2563L30.1451 21.9734L29.3477 21.9718L29.3869 22.6477C29.4151 23.0652 29.4433 23.5762 29.4433 24.8852V25.8647L29.6409 25.9305Z"></path>
<path fill="white" d="M51.1861 14.6595V12.9884H46.5906V9.95142H46.0014L45.6978 10.468C45.682 10.4915 44.7844 12.1919 43.4862 13.198C43.1194 13.4818 42.8029 13.7152 41.9739 14.0586L41.7982 14.1305V14.6595H43.5818L43.5708 15.6011C43.548 17.6067 43.5288 19.3371 43.5288 21.4939C43.5288 22.2769 43.5288 23.5787 43.7424 24.2435C44.2527 25.9112 45.412 26.6545 47.4993 26.6545C49.9524 26.6545 50.993 25.2972 51.0411 25.2438L51.1579 25.1134L50.9218 24.5625L50.6429 24.7055C50.6375 24.7136 49.9218 25.0734 48.9906 25.0734C46.9843 25.0734 46.5908 23.8675 46.5908 21.7468V14.6611H51.1864L51.1861 14.6595Z"></path>
<path fill="white" d="M76.2206 22.9939C76.1888 23.891 76.1629 24.928 75.7262 25.3675C75.4927 25.5996 75.1299 25.7467 74.6066 25.829L74.3636 25.8592V26.4843L74.6754 26.4554C75.88 26.3402 76.7426 26.3402 77.7399 26.3402C78.6136 26.3402 79.4487 26.3869 80.4198 26.4363L81.0889 26.4706V25.8401L80.8223 25.8207C80.4349 25.7961 79.9885 25.6368 79.7783 25.4417C79.3594 25.0516 79.273 24.4252 79.273 22.1972V18.2578C79.273 17.5985 79.2276 16.3542 79.0972 15.8432C78.6452 13.7794 77.0573 12.644 74.6219 12.644C72.762 12.644 71.3914 13.4331 70.7099 13.9393V12.8708L70.4446 12.7142L70.2894 12.7835C70.1248 12.862 69.6632 13.1378 68.8692 13.2628C67.8306 13.4654 66.8464 13.5188 66.4302 13.5188C66.3443 13.5188 66.2784 13.5188 66.2247 13.5121L65.9197 13.4893V14.2599L66.1737 14.2881C66.2073 14.2894 66.2457 14.2948 66.2849 14.2964C66.6111 14.319 67.2215 14.3609 67.4972 14.7593C67.7395 15.1191 67.7643 15.8322 67.7643 17.4913V21.3483C67.7643 23.649 67.7397 24.799 67.3215 25.266C66.9222 25.7149 66.3508 25.8044 66.125 25.8236L65.866 25.8428V26.4857L66.1683 26.4554C67.3776 26.3429 68.2919 26.3429 69.2698 26.3429C70.116 26.3429 70.929 26.3869 71.8631 26.4336L72.5829 26.4719V25.8414L72.3176 25.8222C71.9263 25.7961 71.4866 25.6368 71.2739 25.4417C70.8575 25.0541 70.767 24.4266 70.767 22.1985V15.1108C71.3343 14.8182 72.0896 14.5428 73.2944 14.5428C75.0472 14.5428 75.9565 15.3553 76.1595 17.0997C76.2694 18.1313 76.2694 19.178 76.2694 20.1863C76.2694 20.9621 76.2694 22.0228 76.2459 22.5267C76.2317 22.6916 76.2233 22.8455 76.2206 22.9939Z"></path>
<path fill="white" d="M88.2837 7.2045C88.6408 6.84447 89.2205 6.71815 89.6435 6.71815C90.6613 6.71815 91.4046 7.16525 91.9182 8.3103L91.9895 8.47926L92.3123 8.47497L93.6502 6.61393L93.6105 6.32812L93.5061 6.24421C92.7768 5.65296 91.528 5.21533 90.2122 5.21533C87.1504 5.21533 85.329 6.62814 84.7946 9.41428C84.6324 10.2523 84.5968 11.7969 84.5938 12.9924C84.2478 13.2638 83.7752 13.5144 83.0114 13.8289L82.8357 13.9051V14.6606H84.5938V21.3507C84.5938 23.6514 84.5747 24.7887 84.1558 25.2559C83.7574 25.7064 83.1874 25.7957 82.9568 25.8095L82.6945 25.8329V26.488L83.0062 26.4578C84.2138 26.345 85.3523 26.345 86.3522 26.345C87.1517 26.345 88.2559 26.3807 89.7423 26.4578L90.0416 26.4756V25.7544H89.7558C89.4181 25.7544 88.2683 25.7132 87.8948 25.1447C87.657 24.7957 87.5993 23.9304 87.5993 22.1476V14.662H90.6074V12.9911H87.5997V10.382C87.5997 8.65746 87.6985 7.78537 88.2837 7.2045Z"></path>
<path fill="white" d="M98.216 26.7107C103.283 26.7107 105.081 22.8178 105.081 19.4774C105.081 15.1828 102.62 12.6157 98.5005 12.6157C93.4319 12.6157 91.6381 16.5106 91.6381 19.8499C91.6381 24.1463 94.0994 26.7107 98.216 26.7107ZM96.4756 14.7887C96.9455 14.382 97.5896 14.1767 98.3852 14.1767C101.706 14.1767 101.874 18.7136 101.874 19.6232C101.874 21.9775 101.327 23.634 100.245 24.5406C99.7669 24.9473 99.1215 25.1533 98.3326 25.1533C95.0073 25.1533 94.8409 20.615 94.8409 19.7084C94.844 17.3538 95.3908 15.6958 96.4756 14.7887Z"></path>
<path fill="white" d="M112.764 14.9136C113.989 14.9136 114.622 15.5035 114.937 15.9982L115.022 16.1286H115.569L116.706 14.0489V13.6237L116.614 13.5364C116.058 13.0392 115.294 12.7859 114.353 12.7859C112.907 12.7859 111.879 13.4329 111.232 14.0419V12.8703L110.995 12.7446L110.838 12.8152C110.61 12.9237 110.049 13.092 109.393 13.2005C108.355 13.4045 107.373 13.4568 106.954 13.4568C106.869 13.4568 106.782 13.4554 106.733 13.4498L106.443 13.4421V14.2594L106.707 14.2876C106.734 14.289 106.773 14.2944 106.811 14.2959C107.14 14.3185 107.748 14.3605 108.024 14.7588C108.265 15.1186 108.284 15.8317 108.284 17.4908V21.3478C108.284 23.6485 108.267 24.757 107.848 25.2242C107.454 25.6749 106.877 25.7654 106.65 25.7807L106.385 25.8012V26.4852L106.699 26.455C107.904 26.3424 109.039 26.3424 110.045 26.3424C110.839 26.3424 111.947 26.378 113.432 26.455L113.731 26.4728V25.7243H113.45C113.108 25.7243 111.968 25.6803 111.586 25.1159C111.354 24.7669 111.295 23.9276 111.295 22.1461V15.3456C111.72 15.053 112.203 14.9136 112.764 14.9136Z"></path>
<path fill="white" d="M131.636 25.285C131.316 25.2588 130.728 25.1943 130.45 24.7905C130.211 24.4662 130.189 23.4472 130.189 21.8016V10.8025C130.189 9.01749 130.201 6.6419 130.291 5.52799L130.302 5.39625L130.071 5.25684L129.937 5.30895C129.662 5.40978 129.134 5.52799 128.602 5.61393C127.335 5.86455 125.776 5.99516 125.711 5.99516H125.426L125.367 6.59882L125.624 6.62341C125.654 6.62702 125.69 6.6295 125.731 6.63107C126.052 6.65657 126.644 6.70123 126.918 7.09532C127.157 7.45512 127.18 8.35429 127.18 10.0362V12.9029C126.599 12.7786 125.629 12.6466 124.544 12.6466C121.582 12.6466 119.234 14.0491 118.105 16.4982C117.625 17.5544 117.368 18.8099 117.368 20.1287C117.368 24.112 119.764 26.6807 123.467 26.6807C125.242 26.6807 126.568 25.9087 127.239 25.4143V26.5544L127.6 26.6753L127.723 26.6204C127.962 26.5106 128.442 26.4156 129.099 26.3085C130.242 26.1136 131.418 26.0324 131.72 26.0324H132.003V25.3069L131.747 25.2961C131.717 25.2904 131.678 25.2877 131.636 25.285ZM127.178 24.2027C126.405 24.6834 125.513 24.7547 125.038 24.7547H124.915C120.997 24.7547 120.571 21.2643 120.571 19.763C120.571 16.0626 121.856 14.2611 124.485 14.2611C126.14 14.2611 126.959 14.9478 127.178 15.167V24.2027Z"></path>
</svg>
