<svg xmlns="http://www.w3.org/2000/svg" fill="none" viewBox="0 0 76 23" height="23" width="76">
<path fill="#FAF9F6" d="M39.6586 13.2216C39.5061 13.3614 39.2832 13.3708 39.1096 13.2761C38.4558 12.7261 38.2568 12.4279 37.9542 11.9749C37.8997 11.8933 37.842 11.8068 37.7777 11.7128C36.5021 13.025 35.599 13.4182 33.9458 13.4182C31.99 13.4182 30.4679 12.1984 30.4679 9.75871C30.4679 7.85433 31.4905 6.55633 32.9468 5.92154C34.0154 5.44812 35.4422 5.3026 36.6731 5.17706L36.6793 5.17645C36.8992 5.15396 37.1135 5.13211 37.318 5.10911V4.80356L37.319 4.63069C37.3228 4.11238 37.3272 3.53473 37.0343 3.10053C36.7505 2.66944 36.2089 2.48942 35.7305 2.48942C34.844 2.48942 34.0559 2.94893 33.8613 3.89875C33.8214 4.10955 33.6691 4.32036 33.458 4.32984L31.2042 4.08349C31.0144 4.04086 30.8032 3.88689 30.8573 3.59319C31.3755 0.833758 33.8425 0 36.0541 0C37.1843 0 38.6642 0.305546 39.5553 1.16773C40.5944 2.14754 40.5873 3.42959 40.5792 4.83541C40.5786 4.95889 40.5779 5.08332 40.5779 5.20859V8.86573C40.5779 9.84815 40.9381 10.3368 41.3169 10.8512L41.3327 10.8725C41.3732 10.9277 41.4142 10.9834 41.4548 11.0401C41.6027 11.2533 41.6378 11.5067 41.4479 11.6631C40.9741 12.0657 40.1299 12.8047 39.6655 13.2216L39.6586 13.2169V13.2216ZM37.3158 7.49668V7.61236C37.3167 8.47582 37.3174 9.20815 36.8795 9.98609C36.5089 10.6469 35.9226 11.052 35.2709 11.052C34.3795 11.052 33.8567 10.3651 33.8567 9.34893C33.8567 7.34981 35.6318 6.98742 37.3135 6.98742V7.49431L37.3158 7.49668Z" clip-rule="evenodd" fill-rule="evenodd"></path>
<path fill="#FAF9F6" d="M65.9662 13.25H68.2809L68.2786 13.2524C68.5271 13.2524 68.7265 13.0582 68.7311 12.819V6.33131C68.7311 5.51888 68.7733 4.78461 69.0994 4.04796C69.3595 3.46529 69.8803 3.08394 70.4455 3.08394C71.9266 3.08394 71.9124 4.72116 71.9012 6.01063C71.9002 6.11962 71.8993 6.22612 71.8993 6.32894V12.8711C71.9229 13.0771 72.0965 13.2358 72.3122 13.25H74.6409C74.8706 13.25 75.0607 13.0842 75.0866 12.8711V5.28913C75.0866 4.12376 75.0866 2.50126 74.479 1.53723C73.8295 0.495033 72.8094 0.11606 71.7681 0.11606C70.1641 0.11606 69.2542 0.902443 68.6022 2.55101H68.5575V0.708214C68.5154 0.521099 68.3489 0.381344 68.1448 0.371875H65.9898C65.7576 0.371875 65.5629 0.544779 65.5441 0.765059L65.5487 12.8166C65.5487 13.0487 65.734 13.2358 65.9662 13.25Z"></path>
<path fill="#FAF9F6" d="M58.4922 0.118431C61.9419 0.118431 63.8063 3.11 63.8063 6.914C63.8063 10.718 61.745 13.5059 58.4922 13.5059C55.2395 13.5059 53.2649 10.5143 53.2649 6.78845C53.2649 3.06262 55.1294 0.118431 58.4922 0.118431ZM58.5133 2.57706C56.7991 2.57706 56.6912 4.93383 56.6912 6.40474V6.45516C56.691 7.94617 56.6906 11.0188 58.4922 11.0188C60.3143 11.0188 60.38 8.48439 60.38 6.93768C60.38 5.92391 60.3379 4.70644 60.0331 3.74241C59.7727 2.9063 59.2521 2.57706 58.5133 2.57706Z" clip-rule="evenodd" fill-rule="evenodd"></path>
<path fill="#FAF9F6" d="M13.2147 13.25H15.5388C15.7875 13.25 15.989 13.0558 15.989 12.8166V6.33411C15.9881 4.94848 15.987 3.11 17.5956 3.11C19.0769 3.11 19.0524 4.71121 19.0327 6.01048C19.0304 6.15521 19.0283 6.29619 19.0283 6.4308V12.819C19.0283 13.0511 19.2113 13.2382 19.4458 13.2524H21.7676C22.0161 13.2524 22.2155 13.0582 22.2155 12.819V6.43317L22.2151 6.2633V6.25992C22.2135 5.58635 22.2114 4.68533 22.4313 4.12613C22.6704 3.51976 23.2544 3.13842 23.8196 3.13842C24.4926 3.13842 25.0132 3.36581 25.1868 4.17824C25.2738 4.56705 25.2628 5.47005 25.2555 6.06947V6.07242C25.2539 6.21305 25.2523 6.33685 25.2523 6.43317V12.8213C25.2523 13.0534 25.4353 13.2406 25.6698 13.2548H27.9916C28.24 13.2548 28.4418 13.0606 28.4418 12.8213V5.21807C28.4418 5.03263 28.4448 4.84354 28.448 4.65266C28.4665 3.51237 28.4862 2.30852 27.8555 1.44012C27.2058 0.525841 26.1411 0.120802 25.1657 0.120802C23.7985 0.120802 22.5204 0.831387 21.9551 2.35204C21.3031 0.831387 20.3699 0.120802 18.9392 0.120802C17.5088 0.120802 16.4441 0.831387 15.8812 2.35204H15.8367V0.779284C15.8225 0.55899 15.6421 0.386086 15.4147 0.374246H13.25C13.0015 0.374246 12.7997 0.566103 12.7997 0.807707V12.8521C12.8162 13.0677 12.9944 13.2358 13.2147 13.25Z"></path>
<path fill="#FAF9F6" d="M43.4037 2.49889V0.776913C43.4037 0.513986 43.6009 0.341081 43.8354 0.341081H51.4756C51.7195 0.341081 51.9167 0.518728 51.9167 0.774543V2.25019C51.9167 2.49889 51.7078 2.82102 51.3421 3.33502L47.3858 9.04101C48.8538 9.00549 50.4086 9.22814 51.7431 9.9861C52.0434 10.1566 52.1253 10.4101 52.1487 10.6588V12.4968C52.1487 12.7503 51.8743 13.0416 51.586 12.89C49.2338 11.6465 46.1148 11.5091 43.5141 12.9066C43.2491 13.0487 42.9699 12.7597 42.9699 12.5063V10.7606C42.9699 10.4811 42.9745 10.0027 43.2537 9.57632L47.8384 2.93235H43.8471C43.6032 2.93235 43.4062 2.75707 43.4062 2.49889H43.4037Z"></path>
<path fill="#FAF9F6" d="M43.3155 15.6103C44.7274 15.4392 47.8446 15.0614 48.4013 15.7821C48.9594 16.5045 47.782 19.4771 47.2544 20.8059C47.0927 21.2086 47.4351 21.3697 47.7962 21.0665C50.1366 19.0887 50.7416 14.946 50.2632 14.3467C49.7873 13.7545 45.695 13.2429 43.1974 15.0147C42.8128 15.2871 42.8786 15.6637 43.3052 15.6116L43.3155 15.6103Z"></path>
<path fill="#FAF9F6" d="M30.4517 22.8571C35.897 22.8571 42.2243 21.1281 46.5861 17.8759C47.3084 17.3359 46.6892 16.5306 45.9529 16.8456C41.0634 18.9418 35.747 19.9556 30.9113 19.9556C23.7444 19.9556 16.803 17.9707 11.1911 14.6712C10.6985 14.3822 10.3351 14.8915 10.7432 15.2634C15.9446 20.0077 22.8183 22.8571 30.4517 22.8571Z"></path>
<path fill="#FAF9F6" d="M8.64172 13.2761C8.81531 13.3708 9.03814 13.3614 9.19067 13.2216L9.19525 13.2193L9.20006 13.224C9.66428 12.8071 10.5084 12.0681 10.9823 11.6654C11.1721 11.5091 11.1371 11.2557 10.9894 11.0425C10.9436 10.9786 10.8975 10.9161 10.8517 10.8539C10.4725 10.3394 10.1122 9.85074 10.1122 8.8681V5.21096C10.1122 5.08569 10.1129 4.96126 10.1136 4.83778C10.1216 3.43197 10.1287 2.14991 9.08967 1.1701C8.19628 0.307917 6.71889 0.00237093 5.58847 0.00237093C3.37456 0.00237093 0.907593 0.836129 0.391619 3.59319C0.3378 3.88691 0.548724 4.04086 0.738808 4.08349L2.99004 4.32984C3.2012 4.32036 3.35349 4.10956 3.39334 3.89875C3.588 2.94893 4.37605 2.48942 5.26257 2.48942C5.74099 2.48942 6.28261 2.66944 6.56637 3.10053C6.8579 3.53266 6.8531 4.10686 6.84874 4.62324L6.84783 4.80356V5.10911C6.64125 5.13237 6.42483 5.15446 6.202 5.17722C4.97287 5.30273 3.54701 5.44834 2.47888 5.92154C1.02256 6.55633 0 7.85434 0 9.75871C0 12.1984 1.52204 13.4182 3.47785 13.4182C5.13112 13.4182 6.03413 13.025 7.30975 11.7128C7.37411 11.8068 7.43182 11.8933 7.48633 11.9749C7.78886 12.4279 7.98787 12.7261 8.64172 13.2761ZM6.84783 7.61288V6.98742C5.16639 6.98742 3.39105 7.34983 3.39105 9.34894C3.39105 10.3651 3.91412 11.052 4.80523 11.052C5.45701 11.052 6.04581 10.6469 6.41384 9.9861C6.84943 9.20832 6.84874 8.47613 6.84783 7.61288Z" clip-rule="evenodd" fill-rule="evenodd"></path>
</svg>
